<?xml version="1.0" standalone="no"?>
<!DOCTYPE svg PUBLIC "-//W3C//DTD SVG 20010904//EN"
 "http://www.w3.org/TR/2001/REC-SVG-20010904/DTD/svg10.dtd">
<svg version="1.0" xmlns="http://www.w3.org/2000/svg"
 width="756.000000pt" height="830.000000pt" viewBox="0 0 756.000000 830.000000"
 preserveAspectRatio="xMidYMid meet">

<g transform="translate(0.000000,830.000000) scale(0.100000,-0.100000)"
fill="#000000" stroke="none">
<path d="M490 7720 c0 -163 1 -170 20 -170 18 0 20 7 20 75 l0 75 70 0 c56 0
70 3 70 15 0 12 -14 15 -70 15 l-70 0 0 65 0 65 75 0 c60 0 75 3 75 15 0 12
-17 15 -95 15 l-95 0 0 -170z"/>
<path d="M2070 7721 c0 -168 0 -171 21 -171 21 0 22 2 17 150 -3 83 -2 147 2
143 4 -4 31 -72 60 -150 39 -106 58 -143 70 -143 12 0 31 37 70 138 30 75 57
141 62 147 4 5 8 -57 8 -138 0 -124 2 -147 15 -147 13 0 15 26 15 170 l0 170
-28 0 c-26 0 -30 -7 -82 -140 -29 -77 -56 -137 -59 -134 -3 3 -29 65 -56 137
-50 129 -52 132 -83 135 l-32 3 0 -170z"/>
<path d="M2910 7720 c0 -166 1 -170 21 -170 20 0 21 3 17 140 -1 77 -1 140 2
140 3 0 46 -63 95 -140 71 -111 95 -140 113 -140 22 0 22 0 22 170 0 143 -2
170 -15 170 -12 0 -15 -25 -17 -142 l-3 -142 -93 142 c-78 119 -97 142 -118
142 l-24 0 0 -170z"/>
<path d="M1783 7843 c-3 -10 -17 -28 -32 -40 -26 -23 -26 -23 -3 -23 21 0 22
-3 22 -95 0 -89 2 -98 25 -121 29 -29 78 -30 83 -2 2 13 -1 16 -11 12 -9 -3
-25 -1 -36 6 -19 10 -21 20 -21 105 l0 95 35 0 c24 0 35 5 35 15 0 10 -11 15
-35 15 -31 0 -35 3 -35 25 0 29 -18 34 -27 8z"/>
<path d="M3580 7835 c-5 -14 -17 -28 -25 -31 -19 -8 -19 -24 0 -24 12 0 15
-17 15 -95 0 -88 2 -98 25 -120 24 -25 49 -31 79 -19 24 9 19 24 -8 24 -45 0
-56 23 -56 121 l0 89 35 0 c24 0 35 5 35 15 0 10 -11 15 -35 15 -31 0 -35 3
-35 25 0 32 -18 32 -30 0z"/>
<path d="M771 7794 c-71 -50 -65 -188 11 -234 109 -66 218 56 164 184 -19 46
-52 66 -106 66 -26 0 -56 -7 -69 -16z m128 -40 c25 -32 28 -101 6 -144 -29
-56 -112 -46 -136 18 -16 41 -5 113 21 134 34 27 84 23 109 -8z"/>
<path d="M1030 7680 c0 -123 1 -130 20 -130 18 0 20 7 20 81 0 107 23 148 83
149 17 0 27 5 27 15 0 22 -52 19 -83 -5 -14 -11 -28 -20 -31 -20 -3 0 -6 9 -6
20 0 11 -7 20 -15 20 -13 0 -15 -21 -15 -130z"/>
<path d="M1245 7785 c-31 -30 -33 -83 -6 -116 17 -21 17 -26 4 -46 -10 -15
-12 -27 -5 -39 8 -14 4 -22 -14 -37 -29 -22 -32 -67 -6 -90 25 -23 98 -31 148
-18 48 13 62 26 70 68 9 47 -22 73 -88 73 -61 0 -81 10 -76 36 2 15 15 20 52
25 65 7 90 36 82 96 -5 38 -3 43 14 43 11 0 20 7 20 15 0 12 -16 15 -85 15
-78 0 -88 -2 -110 -25z m113 -18 c6 -5 12 -25 12 -43 0 -66 -86 -83 -109 -22
-22 60 45 105 97 65z m30 -226 c21 -13 10 -54 -18 -68 -39 -20 -104 -16 -125
7 -17 18 -17 21 -1 45 14 22 23 25 74 25 31 0 63 -4 70 -9z"/>
<path d="M1520 7780 c-58 -62 -48 -172 19 -217 49 -33 142 -26 149 11 3 15 0
17 -19 11 -73 -23 -130 0 -144 58 l-7 27 91 0 91 0 0 30 c0 38 -24 86 -49 100
-11 5 -38 10 -61 10 -34 0 -48 -6 -70 -30z m124 -22 c33 -47 23 -58 -55 -58
-68 0 -70 1 -63 23 17 58 87 79 118 35z"/>
<path d="M2537 7786 c-56 -51 -59 -155 -8 -207 47 -47 161 -50 169 -5 3 15 0
17 -19 11 -73 -23 -130 0 -144 58 l-7 27 91 0 91 0 0 30 c0 38 -24 86 -49 100
-36 19 -96 12 -124 -14z m117 -28 c33 -47 23 -58 -55 -58 -68 0 -70 1 -63 23
17 58 87 79 118 35z"/>
<path d="M3300 7782 c-52 -52 -52 -147 0 -205 25 -28 35 -32 80 -32 45 0 55 4
80 32 53 59 52 155 -2 205 -25 23 -39 28 -80 28 -41 0 -54 -5 -78 -28z m130
-20 c26 -21 37 -86 21 -135 -23 -68 -114 -72 -141 -6 -16 38 -7 114 15 139 23
25 75 26 105 2z"/>
<path d="M2282 6900 c-647 -3 -981 -8 -980 -15 2 -5 6 -9 11 -7 4 1 7 -7 7
-19 0 -11 4 -18 9 -15 9 6 5 -23 -6 -54 -4 -8 -5 -19 -4 -23 1 -4 -15 -15 -34
-23 -23 -9 -35 -21 -35 -34 0 -10 -4 -21 -9 -24 -12 -8 -20 -55 -9 -58 16 -6
17 -97 2 -112 -10 -10 -11 -22 -4 -46 5 -18 7 -30 3 -26 -3 3 -11 -2 -17 -12
-40 -66 -59 -91 -66 -87 -4 3 -5 -5 -2 -17 5 -22 5 -22 -19 -6 -17 12 -23 23
-21 44 2 15 -1 30 -5 33 -16 12 -43 61 -43 79 0 10 -3 22 -7 25 -3 4 -6 27 -6
52 1 32 -4 48 -16 54 -12 7 -16 29 -19 93 -2 46 -6 109 -9 141 l-5 57 -272 0
-273 0 -6 -217 c-10 -329 -8 -1566 2 -1582 7 -10 25 -14 58 -13 63 3 83 10 83
28 0 8 7 14 15 14 20 0 19 20 -3 37 -9 8 -12 12 -7 9 7 -3 10 24 8 82 -1 48
-2 98 -1 112 0 14 0 35 0 48 0 12 4 22 9 22 5 0 9 15 7 34 -2 28 4 39 31 61
19 16 30 34 27 42 -3 8 -1 11 4 8 6 -3 10 -1 10 4 0 6 7 11 15 11 16 0 76 27
85 39 3 3 11 6 18 7 6 1 18 2 26 3 8 0 17 10 21 20 3 11 12 18 20 15 7 -3 16
-1 20 5 5 10 -21 16 -48 12 -4 0 -6 11 -6 26 1 17 3 21 6 11 2 -10 8 -18 13
-18 5 0 16 -3 26 -7 13 -5 16 -3 12 9 -8 18 8 46 19 34 4 -5 2 -11 -4 -13 -10
-4 -9 -8 1 -19 20 -19 26 -18 26 7 0 13 4 18 12 13 7 -5 9 -2 5 9 -7 20 66 45
131 45 40 0 46 -4 85 -54 23 -30 49 -54 59 -54 9 0 20 -4 23 -10 8 -13 45 -13
45 1 0 6 12 9 28 7 19 -2 33 4 46 21 19 23 20 23 27 5 4 -10 8 -13 8 -6 1 14
61 17 61 2 0 -5 7 -10 15 -10 22 0 50 -115 33 -137 -6 -7 -7 -13 -4 -13 4 0 1
-7 -8 -15 -8 -8 -19 -15 -25 -15 -22 0 -68 -55 -64 -75 3 -11 5 -28 6 -38 1
-15 5 -14 24 7 13 14 23 31 23 39 0 16 68 87 84 87 6 0 38 14 71 31 77 39 273
90 320 82 44 -7 72 11 50 34 -12 11 -12 17 -2 28 6 7 15 11 19 9 14 -9 19 16
7 37 -9 18 -9 21 4 16 11 -4 13 0 10 14 -6 20 -23 27 -23 8 0 -5 -5 -7 -10 -4
-6 3 -13 -1 -16 -9 -3 -9 -10 -16 -15 -16 -10 0 10 41 26 52 6 5 4 8 -4 8 -8
0 -20 8 -28 18 -12 15 -13 14 -7 -13 6 -30 6 -30 -10 -8 -9 12 -17 33 -18 47
-1 14 -8 26 -15 26 -7 0 -13 7 -13 16 0 9 -5 12 -12 8 -8 -5 -9 -2 -5 10 6 15
-5 33 -40 71 -10 11 -10 14 0 18 9 4 8 8 -3 16 -13 9 -13 12 -1 20 7 5 14 19
15 31 1 15 12 26 34 36 24 10 31 10 25 1 -4 -7 6 -4 21 7 16 10 26 13 22 8 -9
-15 13 -27 26 -14 12 12 38 4 53 -15 6 -7 22 -14 38 -15 15 -1 27 -6 27 -9 0
-4 33 -7 73 -6 l74 2 18 45 c29 70 80 151 122 195 40 42 120 75 179 75 50 0
124 -56 148 -113 7 -18 30 -54 50 -80 21 -27 42 -60 48 -73 6 -13 19 -24 29
-24 10 0 20 -4 23 -9 4 -5 -3 -7 -14 -4 -23 6 -25 0 -9 -28 5 -11 14 -17 18
-14 5 3 11 -2 14 -10 4 -9 1 -12 -9 -8 -20 7 -18 -14 4 -27 12 -8 13 -13 5
-16 -7 -3 -13 -10 -13 -15 0 -6 4 -8 9 -4 13 7 17 -2 26 -59 6 -42 4 -48 -9
-43 -10 4 -16 1 -16 -8 0 -9 6 -12 15 -9 8 4 15 1 15 -5 0 -6 -8 -11 -17 -12
-15 0 -15 -2 2 -9 17 -7 17 -9 3 -9 -10 -1 -18 -8 -18 -16 0 -9 6 -12 15 -9
18 7 20 -7 3 -24 -9 -9 -7 -13 5 -18 9 -3 14 -10 11 -15 -3 -5 -13 -5 -25 1
-13 7 -19 7 -19 0 0 -5 5 -10 10 -10 6 0 10 -4 10 -10 0 -5 -6 -9 -12 -7 -7 1
-12 -4 -11 -10 2 -7 -2 -13 -7 -13 -6 0 -10 -8 -10 -17 0 -14 5 -12 28 8 28
26 95 72 148 101 46 25 183 55 317 68 108 11 119 11 145 -6 15 -10 35 -17 45
-16 9 2 17 -1 17 -7 0 -5 12 -16 28 -23 20 -10 27 -21 27 -43 1 -34 12 -58 25
-50 5 3 11 1 15 -5 3 -5 -3 -10 -14 -10 -25 0 -25 -3 -7 -38 17 -32 54 -68 62
-59 3 3 8 25 10 49 2 24 10 57 18 73 9 17 16 48 16 70 0 22 4 55 9 73 8 28 7
32 -9 32 -10 0 -25 3 -34 6 -19 7 -22 25 -3 20 6 -3 26 -7 43 -10 25 -4 31 -2
30 11 0 9 5 18 12 20 7 3 12 -4 12 -16 0 -30 19 -27 114 19 46 22 89 40 96 40
9 0 8 6 -5 20 -9 10 -15 26 -12 35 4 9 1 15 -8 15 -19 0 -19 14 0 30 8 7 13
16 10 20 -3 5 -7 22 -9 39 -4 35 -31 68 -40 48 -3 -6 -3 12 -1 42 3 30 17 79
31 110 28 58 95 137 125 146 23 8 25 25 3 25 -21 0 -53 -26 -103 -84 -22 -26
-41 -45 -41 -42 0 3 -8 -2 -19 -11 -10 -10 -37 -35 -60 -56 -50 -45 -57 -90
-23 -137 12 -16 22 -34 22 -41 0 -6 6 -9 13 -6 11 4 11 -9 5 -67 -12 -100 -32
-114 -25 -16 l6 75 -21 -57 c-12 -32 -27 -58 -34 -58 -25 0 -43 100 -38 223 3
94 1 117 -10 117 -8 0 -14 -10 -14 -22 0 -13 -5 -44 -11 -69 -7 -35 -6 -59 4
-100 15 -55 19 -109 9 -109 -12 0 -34 29 -34 46 0 16 -14 12 -16 -4 0 -4 -4
-19 -8 -35 -5 -18 -4 -33 4 -42 10 -12 10 -15 -3 -15 -8 0 -18 6 -20 13 -4 9
-8 9 -15 -2 -5 -7 -15 -10 -21 -7 -6 4 -11 3 -11 -2 0 -13 -26 -23 -70 -29
-45 -5 -55 -16 -41 -42 8 -14 8 -21 1 -21 -6 0 -13 6 -16 14 -3 8 -12 12 -20
9 -10 -4 -14 3 -14 25 0 16 -9 41 -20 55 -11 14 -20 30 -20 36 0 6 -6 25 -14
43 -8 18 -20 47 -27 63 -6 17 -11 41 -10 55 2 27 -28 53 -52 44 -8 -3 -18 -36
-26 -80 -17 -101 -57 -145 -83 -89 -9 19 -9 28 0 37 7 7 12 18 12 25 0 22 -30
15 -56 -14 -13 -14 -27 -24 -29 -21 -21 21 -26 173 -8 237 7 24 10 54 7 67 -5
18 -2 24 10 24 10 0 15 -8 13 -22 -1 -17 3 -23 16 -22 11 1 17 -5 17 -18 0
-10 4 -17 9 -14 5 4 7 -4 3 -16 -3 -14 -2 -19 6 -14 7 4 12 15 12 25 0 10 11
30 25 45 14 15 25 32 25 38 0 5 7 8 15 5 17 -7 31 11 26 37 -9 58 108 176 176
176 27 0 43 -9 78 -46 25 -25 51 -44 57 -42 7 3 19 23 27 47 13 40 14 41 32
25 11 -9 19 -22 19 -29 0 -7 9 -20 20 -30 19 -17 20 -17 26 23 5 32 10 39 25
35 10 -3 19 -15 21 -26 4 -27 38 -35 54 -12 11 15 13 15 18 -3 4 -11 27 -38
53 -61 l46 -43 31 23 c96 72 130 90 156 84 15 -3 49 2 76 11 51 17 157 14 195
-6 21 -12 59 -71 59 -93 0 -9 5 -28 10 -43 l11 -27 29 34 c16 19 29 44 30 56
0 34 17 37 34 6 12 -24 20 -28 64 -29 69 -1 93 -20 113 -85 11 -39 20 -54 32
-53 9 1 17 -2 17 -7 0 -4 19 -13 41 -19 49 -14 104 -47 159 -97 38 -33 46 -32
41 5 -1 6 5 12 14 12 13 0 19 11 17 31 -2 11 83 0 86 -11 3 -7 9 -7 18 1 12
10 13 9 7 -6 -5 -15 -3 -17 11 -12 13 5 19 1 23 -13 3 -11 9 -17 14 -14 5 2 8
-12 7 -33 -1 -20 4 -39 10 -41 16 -5 15 -29 0 -35 -8 -4 -7 -6 4 -6 15 -1 19
-23 6 -37 -4 -3 -4 -13 -1 -22 4 -9 2 -13 -4 -9 -10 6 -55 -37 -48 -45 2 -2
-6 -5 -18 -5 -12 -1 -25 3 -30 10 -4 7 -5 -15 -1 -48 3 -33 8 -61 9 -63 2 -2
-1 -19 -5 -38 -4 -18 -7 -34 -5 -34 2 0 18 15 37 33 49 45 120 86 181 104 104
30 193 44 240 39 52 -6 146 -52 155 -76 3 -8 20 -38 38 -67 47 -74 50 -105 19
-191 -15 -40 -41 -99 -59 -130 -32 -54 -57 -152 -39 -152 5 0 28 20 51 45 38
40 62 56 62 39 0 -3 -12 -21 -26 -40 -15 -19 -25 -36 -23 -38 2 -2 29 1 59 6
95 17 105 16 102 -11 -2 -23 -2 -23 24 -6 20 13 37 15 73 10 90 -12 111 -17
111 -27 0 -6 -11 -7 -24 -4 -16 4 -32 -1 -47 -13 -23 -19 -23 -20 -4 -27 11
-4 24 -14 28 -21 5 -9 16 -11 30 -7 21 6 21 6 5 -13 -10 -11 -18 -23 -18 -26
0 -4 27 -7 61 -7 37 0 58 -4 54 -10 -3 -5 -28 -10 -55 -10 -49 0 -85 -20 -77
-44 2 -6 23 -13 48 -16 32 -4 39 -7 26 -12 -10 -5 -29 -8 -42 -8 -28 0 -39
-31 -23 -66 10 -21 18 -24 67 -24 70 0 56 -20 -16 -22 -38 -2 -49 -6 -46 -16
3 -7 -7 -26 -23 -43 -24 -25 -25 -29 -9 -29 10 0 29 10 42 22 18 16 23 18 23
6 0 -21 -32 -48 -57 -48 -35 0 -35 -14 -1 -27 26 -11 27 -12 6 -8 -14 3 -34 2
-42 -1 -23 -9 -20 -27 4 -21 11 3 18 1 15 -3 -3 -5 -19 -11 -35 -15 -53 -12
-31 -40 30 -37 19 1 41 -2 49 -7 16 -10 6 -31 -15 -31 -8 0 -13 -4 -9 -10 7
-11 34 -2 53 17 8 7 34 18 58 24 24 6 47 15 50 20 3 5 10 9 17 9 21 0 -28 -29
-75 -45 -27 -9 -48 -21 -48 -26 0 -5 35 -10 78 -11 42 -1 59 -3 37 -5 -22 -2
-56 -6 -75 -9 -31 -5 -33 -7 -17 -19 16 -12 16 -13 -4 -18 -11 -3 -18 -10 -14
-16 4 -7 40 -10 96 -9 88 3 89 3 114 -27 21 -25 24 -37 19 -70 -4 -22 -9 -42
-13 -45 -11 -9 -52 -102 -47 -107 2 -3 34 16 71 42 36 26 68 45 71 43 2 -3
-14 -17 -36 -32 -23 -15 -50 -38 -62 -51 -15 -18 -28 -23 -44 -19 -16 4 -25 0
-34 -16 -7 -13 -17 -19 -26 -16 -16 6 -54 -22 -54 -40 0 -15 -29 -39 -37 -30
-4 3 2 13 13 20 10 8 15 18 11 23 -5 4 -15 -1 -23 -12 -8 -11 -21 -20 -28 -20
-8 0 -23 -11 -35 -25 -19 -23 -20 -23 -21 -5 0 11 -4 16 -8 10 -10 -14 -49
-35 -65 -35 -8 0 -19 -22 -27 -51 -12 -44 -15 -48 -22 -28 -6 15 -3 30 7 46 9
13 14 32 12 41 -4 15 -5 15 -6 -1 0 -10 -12 -30 -26 -45 -22 -23 -23 -27 -8
-33 12 -4 13 -8 4 -13 -6 -4 -18 -2 -26 4 -8 7 -24 10 -35 7 -11 -3 -20 -1
-20 4 0 5 -4 9 -10 9 -18 0 -11 -27 10 -36 13 -6 17 -13 11 -22 -6 -11 -17
-11 -44 -4 -32 9 -36 8 -34 -6 1 -10 6 -23 11 -30 4 -7 6 -14 5 -15 -2 -1 -15
-8 -28 -16 -20 -11 -25 -11 -32 1 -5 8 -22 15 -39 16 -26 1 -29 -2 -19 -14 6
-8 20 -14 30 -14 65 0 -36 -52 -145 -75 -54 -11 -61 -11 -106 12 -38 19 -53
22 -74 13 -33 -12 -33 -4 -1 26 31 28 33 60 4 67 -12 3 -18 10 -14 16 3 7 0 8
-9 5 -24 -9 -19 14 9 48 14 16 25 41 25 54 0 14 4 23 9 20 5 -3 11 8 15 24 7
39 55 89 66 70 5 -8 20 -11 41 -8 18 3 51 1 73 -4 51 -12 140 -12 160 -1 9 5
-21 9 -72 10 -117 3 -155 7 -167 16 -5 5 -24 17 -41 27 -26 15 -31 23 -26 46
3 16 1 25 -5 21 -6 -4 -10 5 -9 21 0 15 -3 37 -7 49 -7 19 -4 23 17 29 14 3
24 10 21 14 -3 4 2 13 10 20 8 7 15 18 15 25 0 8 5 15 11 17 5 2 7 11 4 21 -5
12 -18 17 -44 17 -21 0 -73 9 -117 21 -63 16 -116 21 -259 24 -133 2 -191 7
-224 19 -54 20 -61 20 -61 1 0 -9 -12 -28 -26 -42 -24 -23 -30 -25 -82 -19
-81 10 -126 23 -217 66 -125 59 -154 70 -183 69 -16 0 -21 -3 -12 -6 16 -6 55
-43 49 -46 -32 -17 -40 -24 -37 -32 2 -5 10 -9 20 -8 13 2 17 -8 20 -46 2 -36
0 -47 -10 -44 -8 4 -10 0 -6 -11 3 -9 12 -16 19 -16 16 0 40 -28 31 -37 -4 -4
-11 -1 -16 7 -8 13 -10 12 -10 -2 0 -10 -11 -25 -26 -34 -17 -12 -22 -20 -15
-27 7 -7 16 -5 29 6 20 19 62 12 62 -10 0 -7 -6 -13 -12 -12 -31 4 -39 -2 -33
-20 11 -34 -12 -31 -51 7 -21 20 -43 38 -49 38 -5 1 -18 2 -27 3 -12 1 -15 6
-11 19 6 15 5 15 -10 4 -9 -8 -16 -17 -15 -20 1 -4 -2 -18 -6 -30 -7 -21 -12
-23 -44 -18 -21 4 -50 7 -67 9 -25 2 -30 6 -28 24 2 13 12 32 24 44 l21 21
-21 14 c-12 9 -21 21 -21 28 0 8 -7 19 -15 26 -24 20 -19 99 10 164 25 57 46
70 64 39 8 -15 10 -14 17 12 4 17 10 35 15 40 7 10 -40 185 -61 225 -6 11 -19
24 -30 30 -41 22 -124 108 -177 183 -34 47 -66 82 -82 88 -14 5 -33 13 -42 18
-17 10 -66 3 -75 -10 -3 -5 -17 -9 -31 -9 -25 0 -26 0 -19 60 6 55 5 60 -12
60 -11 0 -22 9 -25 20 -3 12 -14 20 -27 20 -19 0 -20 -3 -10 -15 12 -15 6 -35
-11 -35 -5 0 -9 6 -8 13 3 23 -1 37 -11 37 -5 0 -10 -5 -10 -11 0 -5 -11 -27
-25 -47 -14 -20 -25 -46 -25 -58 0 -12 -9 -32 -19 -45 -10 -14 -25 -40 -34
-59 -8 -19 -49 -75 -91 -123 -42 -49 -76 -92 -76 -97 0 -4 -34 -34 -76 -66
-41 -33 -87 -68 -102 -80 l-26 -21 27 -23 c17 -15 30 -38 33 -61 4 -21 13 -40
20 -43 8 -3 14 -14 14 -24 0 -10 5 -23 11 -29 5 -5 12 -27 15 -47 5 -46 30
-106 42 -106 16 0 62 -52 62 -71 0 -25 -16 -32 -33 -15 -10 10 -18 11 -25 4
-23 -23 -48 1 -60 62 -9 41 -19 63 -32 70 -11 6 -20 17 -20 25 0 8 -4 15 -9
15 -5 0 -11 -30 -14 -67 -6 -88 -13 -118 -43 -174 -13 -26 -24 -52 -24 -58 0
-7 -9 -24 -19 -39 -10 -15 -39 -58 -64 -97 -57 -89 -93 -122 -192 -176 -67
-36 -90 -44 -140 -45 -151 -3 -258 31 -295 93 -11 19 -20 40 -20 48 0 7 -10
31 -23 54 -23 40 -24 41 -36 19 -23 -41 -196 -177 -277 -218 -159 -80 -227
-100 -399 -120 -115 -13 -195 28 -195 100 0 10 19 42 43 72 83 103 187 266
187 293 0 6 -3 6 -8 0 -9 -14 -152 -66 -162 -60 -4 2 -15 -4 -25 -15 -10 -11
-25 -20 -33 -20 -7 0 -26 -8 -40 -19 -15 -10 -34 -18 -42 -19 -8 0 -61 -17
-116 -36 -56 -20 -119 -37 -142 -39 -22 -1 -38 -5 -36 -8 2 -3 -30 -6 -71 -7
-41 0 -73 4 -70 8 3 5 -7 7 -22 5 -15 -1 -38 5 -52 14 -15 9 -22 11 -18 4 10
-16 6 -16 -27 -3 -20 7 -24 6 -19 -6 4 -10 0 -12 -11 -8 -9 3 -16 10 -16 14 0
12 -71 2 -89 -13 -12 -10 -13 -9 -7 1 7 11 4 12 -11 4 -21 -11 -92 -10 -111 2
-7 4 -12 2 -12 -3 0 -6 -6 -11 -14 -11 -8 0 -16 -17 -20 -46 -3 -26 -6 -838
-6 -1805 l0 -1759 1780 0 c1707 0 1780 1 1780 18 0 10 -5 23 -11 29 -16 16 49
42 102 42 24 -1 65 8 92 20 26 11 47 18 47 14 0 -3 9 6 20 20 21 27 26 71 14
144 -5 38 -4 43 17 52 124 48 139 64 119 125 -23 70 -67 92 -200 102 -155 11
-163 16 -124 94 25 52 77 100 102 93 10 -2 32 10 50 27 18 16 40 30 48 30 8 0
14 6 14 14 0 8 21 24 46 36 25 13 48 29 51 36 3 8 16 14 29 14 14 0 27 6 30
14 3 8 12 12 19 10 7 -3 19 3 26 14 8 11 18 19 23 20 5 0 24 24 43 53 18 29
33 50 33 46 0 -4 6 -2 14 5 16 15 3 38 -20 38 -18 0 -44 41 -65 102 -13 39
-14 48 -3 44 8 -3 14 1 14 9 0 8 -4 15 -8 15 -16 0 -47 35 -68 77 -18 35 -19
40 -5 35 14 -5 14 -3 2 11 -7 9 -17 14 -22 11 -5 -3 -6 1 -3 9 5 14 -16 63
-61 147 -30 54 -30 57 -6 111 l20 44 -21 22 c-19 20 -20 23 -4 23 14 0 15 2 4
13 -20 20 -46 76 -61 132 l-13 50 -8 -110 c-6 -102 -4 -127 20 -238 4 -15 10
-27 15 -27 15 0 28 -37 35 -97 14 -116 10 -147 -26 -196 -38 -53 -221 -217
-271 -242 -19 -9 -45 -28 -59 -41 -28 -26 -128 -64 -168 -64 -13 0 -37 -10
-54 -21 -23 -17 -44 -22 -88 -21 -96 1 -145 40 -209 165 -19 37 -38 67 -43 67
-4 0 -10 -11 -14 -25 -5 -21 -8 -23 -21 -10 -21 21 -43 18 -43 -5 0 -23 -31
-41 -38 -22 -2 7 -8 10 -13 7 -5 -3 -18 -1 -29 5 -17 9 -26 5 -57 -25 -20 -19
-42 -35 -48 -35 -7 0 -29 -13 -50 -30 -37 -29 -67 -36 -99 -24 -9 3 -16 10
-16 15 0 14 -52 91 -76 114 -29 27 -43 56 -46 94 -1 17 -6 31 -11 31 -5 0 -7
6 -4 13 3 7 -3 18 -12 24 -22 14 -65 98 -57 112 4 6 23 13 44 17 20 4 51 14
67 22 l30 15 -29 8 c-16 4 -37 17 -48 28 -10 12 -23 21 -29 21 -6 0 -7 5 -4
10 3 6 2 10 -2 10 -5 0 -7 16 -5 35 3 21 0 35 -7 35 -15 0 -14 34 3 75 18 42
120 144 172 170 21 11 41 21 42 22 11 5 -15 49 -49 86 -97 103 -124 127 -141
127 -10 0 -26 5 -36 10 -30 18 -142 48 -142 39 0 -5 -6 -9 -13 -9 -8 0 -22 -8
-31 -19 -9 -10 -38 -27 -64 -36 -26 -10 -55 -25 -65 -33 -28 -25 -28 -9 0 34
15 21 34 50 43 64 38 57 49 90 57 180 13 152 2 207 -39 197 -12 -4 -26 7 -45
37 -16 23 -31 43 -36 44 -4 1 -19 5 -33 8 -15 4 -30 2 -37 -6 -9 -10 -9 -11 3
-5 13 8 13 7 0 -10 -13 -16 -15 -16 -18 -2 -4 20 -22 23 -22 5 0 -10 -3 -9 -9
1 -5 7 -14 10 -20 7 -6 -4 -11 -3 -11 3 0 6 -7 8 -15 5 -10 -4 -15 0 -15 11 0
9 -5 13 -10 10 -6 -4 -13 7 -16 24 -4 17 -12 31 -20 31 -7 0 -16 10 -20 22 -4
13 -14 28 -23 35 -12 9 -13 14 -4 24 9 9 8 17 -4 36 -14 21 -14 26 -2 34 11 7
9 9 -7 9 -12 0 -27 -7 -34 -15 -7 -8 -18 -15 -24 -15 -21 0 -99 77 -91 90 12
19 14 94 3 108 -6 6 -19 12 -29 12 -10 0 -21 10 -25 23 -7 21 -7 21 -15 2 -4
-11 -8 -14 -8 -7 -2 22 -19 13 -29 -15 l-10 -28 -1 33 c-1 20 7 45 19 59 11
14 20 31 20 38 0 7 7 19 16 26 9 7 20 23 25 36 5 13 15 23 23 23 9 0 20 8 25
18 13 25 93 46 148 38 121 -16 177 -119 117 -212 -25 -37 -36 -101 -23 -126
13 -24 57 -68 117 -117 22 -19 69 -71 102 -116 33 -45 71 -87 84 -93 27 -12
27 -11 62 98 29 93 46 119 82 129 36 10 132 86 132 104 0 16 104 81 155 98 22
7 47 19 55 26 21 16 119 43 200 54 109 15 275 -6 372 -46 18 -7 19 0 2 82 -2
12 1 25 6 28 8 5 8 11 0 20 -8 9 -7 14 4 18 12 5 13 10 3 31 -7 14 -19 26 -28
26 -28 0 -40 49 -35 140 3 68 10 97 34 145 33 68 54 115 72 163 7 17 16 32 21
32 5 0 12 12 15 28 7 29 49 92 71 105 7 4 27 21 45 38 32 29 98 54 121 46 8
-2 12 -33 13 -88 1 -46 3 -93 7 -104 16 -59 17 -73 8 -96 -5 -14 -15 -32 -23
-40 -37 -41 -148 -276 -148 -314 0 -9 -6 -28 -14 -43 -15 -30 -27 -94 -30
-159 -1 -39 1 -43 34 -57 41 -17 200 -16 293 3 31 7 62 9 67 6 5 -3 13 7 16
22 8 31 41 62 66 63 9 0 20 4 23 10 3 6 15 10 26 10 11 0 22 7 25 15 8 20 72
31 96 16 10 -6 29 -9 43 -5 16 4 41 -2 71 -17 46 -22 47 -22 60 -3 7 10 19 25
25 32 11 13 11 23 6 82 -1 11 -5 20 -9 20 -5 0 -18 16 -29 35 -12 19 -26 32
-32 28 -6 -3 -7 -1 -3 5 4 7 2 12 -3 12 -6 0 -11 7 -11 15 0 8 -4 15 -10 15
-5 0 -10 -6 -10 -12 0 -7 -7 -2 -16 10 -8 12 -20 19 -26 16 -6 -4 -9 -3 -6 2
3 5 1 14 -6 19 -16 15 -76 19 -76 5 0 -8 -6 -8 -20 0 -11 6 -20 9 -20 6 0 -3
-12 2 -27 9 -17 9 -29 11 -31 5 -5 -14 -22 -12 -56 5 -15 8 -39 12 -52 9 -15
-4 -24 -2 -24 6 0 7 -8 9 -20 5 -14 -4 -20 -2 -20 8 0 8 -7 17 -15 20 -17 7
-58 93 -60 127 -1 14 -4 31 -8 37 -4 6 -2 13 5 15 8 3 9 15 0 49 -9 37 -8 53
8 99 20 59 22 57 40 -36 7 -34 15 -65 19 -71 7 -10 138 -66 196 -83 22 -7 87
-35 144 -64 82 -40 109 -59 127 -88 13 -21 35 -45 48 -53 29 -19 64 -117 70
-195 2 -30 4 -61 5 -68 1 -7 28 6 67 32 36 25 82 48 102 52 20 4 53 14 72 24
60 29 268 19 420 -20 19 -5 47 -11 61 -14 14 -3 43 -19 64 -36 32 -25 43 -29
75 -24 42 7 101 -9 142 -38 27 -19 58 -69 58 -95 0 -7 3 -12 8 -11 9 3 52 -21
70 -39 8 -8 15 -24 16 -38 1 -17 4 -21 14 -13 7 7 12 7 12 1 0 -6 -11 -19 -25
-29 -15 -11 -20 -21 -14 -25 6 -3 -1 -9 -17 -13 -18 -5 -30 -3 -35 6 -5 8 -9
-9 -9 -43 0 -84 -36 -194 -95 -289 -12 -19 -25 -46 -28 -60 -8 -28 -34 -60
-62 -76 -16 -9 -23 -8 -32 5 -11 15 -12 15 -13 0 0 -10 -12 -19 -32 -24 -43
-10 -50 -12 -70 -20 -11 -4 -18 -3 -18 4 0 6 -5 11 -11 11 -5 0 -7 -4 -4 -10
3 -5 2 -10 -4 -10 -5 0 -12 -14 -16 -31 -5 -20 -10 -28 -17 -21 -12 12 -90 3
-100 -12 -5 -8 -8 -7 -8 2 0 7 -14 12 -34 12 -19 0 -38 5 -41 10 -4 6 -14 9
-23 6 -10 -3 -42 -2 -73 3 -47 6 -56 5 -52 -7 4 -9 -1 -13 -13 -12 -36 4 -41
0 -36 -26 3 -18 13 -27 34 -31 30 -6 64 -45 54 -62 -3 -5 3 -7 14 -4 11 3 20
1 20 -5 0 -6 14 -13 30 -17 17 -4 30 -11 30 -16 0 -14 -50 -23 -129 -23 -72 0
-72 0 -36 -13 21 -7 41 -10 45 -8 5 3 11 1 15 -5 3 -5 17 -10 31 -10 26 0 142
-37 160 -51 6 -5 30 -10 53 -12 22 -1 41 -5 41 -9 0 -5 8 -8 18 -8 22 -1 70
-43 81 -73 9 -22 -1 -55 -21 -68 -5 -3 4 -28 18 -55 34 -63 63 -152 70 -212 5
-45 12 -189 17 -351 l2 -75 -34 -8 c-48 -13 -72 -4 -101 38 -14 21 -29 43 -34
50 -7 8 -5 18 3 28 13 15 16 15 38 1 22 -15 26 -15 49 0 24 16 32 49 14 60 -5
3 -10 12 -9 18 0 9 2 9 6 0 2 -7 9 -13 14 -13 19 0 -5 30 -39 51 -21 11 -41
28 -45 35 -5 10 -16 12 -29 8 -14 -4 -19 -2 -16 7 4 13 -31 49 -49 49 -5 0
-20 8 -33 17 -27 19 -28 19 -83 21 -27 2 -36 6 -31 14 5 10 4 10 -5 2 -15 -14
-66 8 -66 28 0 6 -6 13 -12 16 -7 2 -13 -1 -13 -7 0 -6 -5 -11 -11 -11 -5 0
-7 5 -4 10 3 6 -4 10 -17 10 -15 0 -50 25 -98 70 -73 68 -90 80 -90 61 0 -5 3
-11 8 -13 4 -1 33 -35 65 -75 31 -40 69 -85 83 -100 47 -50 144 -181 144 -195
0 -7 11 -31 24 -54 13 -22 26 -52 29 -65 3 -13 27 -60 52 -104 25 -44 44 -84
42 -89 -2 -6 -19 -19 -38 -29 -29 -17 -46 -19 -118 -13 -77 6 -172 29 -196 47
-6 4 -34 17 -63 28 -29 12 -81 34 -115 50 -34 15 -76 31 -94 34 -27 5 -31 4
-26 -10 5 -12 2 -15 -13 -11 -10 2 -32 -1 -49 -8 -16 -7 -23 -13 -14 -14 8 0
23 -15 33 -32 9 -18 14 -25 12 -16 -4 13 0 18 14 18 12 0 20 7 20 17 0 9 3 13
7 10 3 -4 17 0 29 8 19 12 22 12 18 1 -3 -9 5 -15 27 -20 47 -9 119 -47 119
-63 0 -7 5 -13 12 -13 21 0 134 -128 130 -148 -2 -6 2 -12 8 -12 5 0 10 -9 10
-19 0 -11 5 -32 11 -48 6 -15 13 -41 15 -58 3 -28 12 -111 13 -127 1 -4 8 -14
17 -22 14 -15 14 -16 0 -16 -17 0 -20 -9 -10 -34 3 -9 10 -13 15 -10 5 3 9 0
9 -7 0 -6 -8 -9 -19 -6 -15 3 -18 1 -14 -11 4 -10 2 -13 -5 -8 -8 5 -10 1 -5
-10 4 -12 3 -15 -5 -10 -7 4 -14 -3 -18 -19 -3 -14 -10 -25 -15 -25 -5 0 -4
-12 1 -26 13 -34 13 -37 -7 -30 -17 6 -17 5 0 -8 14 -11 15 -15 5 -20 -10 -5
-10 -7 0 -12 6 -3 12 -16 12 -29 0 -23 15 -40 35 -40 5 0 10 -9 10 -20 0 -13
6 -20 18 -19 66 3 77 5 77 15 0 5 -6 7 -12 4 -7 -4 -4 0 6 9 16 13 17 18 6 32
-12 14 -11 15 6 12 16 -2 19 2 18 30 -1 17 2 32 7 32 5 0 9 -8 9 -17 0 -9 3
-14 6 -11 8 9 -7 79 -16 73 -12 -7 -23 13 -15 25 5 8 12 7 23 -2 13 -11 15
-10 9 4 -4 11 -2 18 5 18 9 0 9 3 0 12 -18 18 -15 38 5 31 12 -5 14 -3 8 8 -5
7 -9 23 -9 34 0 24 23 68 24 45 0 -13 1 -13 10 0 6 9 5 17 -3 22 -9 6 -9 8 1
8 9 0 12 10 8 35 -3 19 -2 35 3 35 5 0 7 9 4 20 -4 15 0 20 13 21 11 0 14 3 8
5 -6 3 -9 16 -6 29 5 29 2 29 38 10 16 -8 41 -15 55 -15 14 0 29 -3 33 -7 4
-5 12 -9 17 -9 5 -1 12 -3 17 -4 4 -1 12 -3 17 -4 6 -1 25 -5 43 -10 22 -5 48
-2 85 10 28 10 57 18 62 19 6 0 21 7 35 14 14 8 35 16 46 17 29 3 102 41 129
67 13 12 32 29 44 37 33 26 88 77 102 97 8 10 38 29 67 42 28 14 52 30 52 38
0 7 7 13 15 13 8 0 15 5 15 10 0 13 37 13 45 0 13 -22 13 -49 -1 -54 -10 -4
-13 -13 -9 -26 4 -14 2 -20 -8 -20 -22 0 -45 -58 -52 -128 -6 -56 -5 -63 18
-86 14 -14 23 -27 20 -30 -3 -3 11 -13 30 -22 21 -10 33 -22 30 -28 -4 -6 1
-5 10 3 9 7 17 19 17 27 0 13 39 40 53 36 4 -1 7 5 7 13 0 9 11 20 25 25 14 5
25 16 25 25 0 8 5 15 10 15 6 0 10 8 10 19 0 10 7 24 15 31 8 7 12 16 10 21
-3 4 0 11 8 16 14 9 37 57 37 79 0 9 7 23 16 31 9 9 14 26 11 39 -3 16 2 24
15 27 12 3 18 15 19 34 3 68 1 110 -5 141 -4 19 -2 32 4 32 5 0 10 7 10 15 0
9 15 32 34 51 19 20 38 40 42 45 40 43 124 118 143 128 26 14 40 25 130 104
36 31 83 65 103 75 21 9 38 23 38 30 0 7 25 24 55 38 30 14 55 29 55 34 0 5
14 17 30 27 l30 17 0 1313 c0 814 -4 1313 -9 1313 -6 0 -12 -4 -15 -9 -3 -4
-17 -6 -31 -3 -14 2 -25 0 -25 -5 0 -5 -16 -9 -35 -10 -20 -1 -42 -7 -50 -13
-8 -7 -15 -8 -15 -3 0 5 -30 10 -67 10 -74 1 -139 9 -157 20 -6 4 -19 9 -30
10 -10 2 -37 17 -59 33 -23 17 -48 30 -56 30 -8 0 -11 3 -8 7 4 3 -3 11 -16
18 -15 8 -24 8 -29 1 -5 -7 -8 -6 -8 2 0 7 -6 19 -12 26 -18 17 -48 27 -48 16
0 -5 -7 -6 -17 -3 -11 4 -14 3 -9 -5 5 -8 1 -10 -11 -5 -10 4 -22 12 -26 20
-6 10 -12 9 -29 -7 -16 -15 -25 -17 -40 -9 -11 6 -40 11 -64 11 -30 0 -42 3
-37 11 9 15 10 55 1 70 -4 7 12 29 40 56 26 25 45 52 44 60 -3 13 -1 13 12 2
13 -11 16 -11 16 0 1 10 4 9 14 -3 7 -10 16 -15 19 -11 4 3 7 -1 7 -10 0 -8
-6 -18 -12 -20 -8 -3 -6 -6 5 -6 9 -1 17 6 17 15 0 13 6 10 25 -10 20 -22 28
-25 45 -16 15 8 18 7 15 -2 -4 -10 15 -13 75 -14 46 0 75 3 68 7 -10 7 -9 9 4
9 9 0 18 -4 20 -8 2 -5 16 -12 31 -16 18 -4 26 -3 23 3 -4 5 8 12 25 16 23 5
28 9 18 16 -12 7 -11 9 1 10 24 3 34 6 52 13 9 4 23 8 30 10 7 1 24 12 36 24
12 12 27 22 33 22 6 0 9 6 6 13 -3 8 13 22 44 37 27 12 49 26 49 31 0 4 22 8
50 7 27 0 47 -4 44 -9 -3 -5 6 -9 20 -9 l26 0 0 675 0 675 -185 0 -184 0 -16
-30 c-9 -18 -21 -27 -29 -24 -8 3 -17 1 -21 -5 -3 -6 -14 -11 -23 -11 -9 0
-30 -7 -47 -16 -16 -8 -46 -17 -65 -18 -20 -1 -41 -5 -47 -9 -6 -4 -14 -4 -17
1 -2 4 -28 14 -55 22 -35 9 -62 25 -85 50 l-34 37 -119 6 c-131 7 -2465 5
-3981 -3z m-1809 -85 c-3 -9 -8 -14 -10 -11 -3 3 -2 9 2 15 9 16 15 13 8 -4z
m79 -56 c19 0 20 -2 5 -7 -16 -7 -15 -10 8 -42 14 -19 24 -43 21 -53 -4 -15
-2 -16 10 -6 9 7 14 8 14 1 0 -6 -4 -14 -10 -17 -5 -3 -10 -11 -10 -16 0 -6 4
-8 9 -4 5 3 12 2 14 -3 3 -4 -5 -12 -18 -18 -19 -9 -22 -8 -17 8 3 14 0 17
-12 12 -11 -4 -16 -1 -16 10 0 9 -7 16 -15 16 -8 0 -15 4 -15 10 0 5 8 7 18 3
9 -3 14 -2 9 2 -4 5 0 17 10 27 11 13 12 18 3 18 -7 0 -18 -7 -24 -16 -10 -14
-14 -13 -31 7 -17 19 -17 21 -3 16 17 -6 35 20 22 32 -4 3 -9 0 -11 -6 -8 -24
-25 -13 -19 11 5 21 3 24 -17 20 -20 -4 -20 -4 -2 5 11 5 27 5 37 0 9 -5 27
-9 40 -10z m103 -197 c3 -8 0 -19 -7 -24 -22 -13 -30 -9 -23 13 6 19 4 21 -14
16 -20 -5 -28 3 -16 15 10 10 54 -4 60 -20z m35 -62 c0 -5 10 -6 23 -4 12 2
16 2 10 -2 -7 -3 -13 -14 -13 -24 0 -43 -52 -18 -57 27 -2 16 2 20 17 16 11
-3 20 -9 20 -13z m50 -54 c0 -3 -4 -8 -10 -11 -5 -3 -10 -1 -10 4 0 6 5 11 10
11 6 0 10 -2 10 -4z m-25 -26 c3 -5 1 -10 -4 -10 -6 0 -11 5 -11 10 0 6 2 10
4 10 3 0 8 -4 11 -10z m2320 -260 c3 -5 -1 -10 -9 -10 -9 0 -16 5 -16 10 0 6
4 10 9 10 6 0 13 -4 16 -10z m880 -10 c3 -5 2 -10 -4 -10 -5 0 -13 5 -16 10
-3 6 -2 10 4 10 5 0 13 -4 16 -10z m-827 -18 c2 -7 -6 -12 -17 -12 -21 0 -27
11 -14 24 9 9 26 2 31 -12z m-1013 -12 c3 -5 -3 -10 -14 -10 -12 0 -21 5 -21
10 0 6 6 10 14 10 8 0 18 -4 21 -10z m910 -40 c17 -11 26 -20 20 -20 -5 0 -23
9 -40 20 -16 11 -25 20 -20 20 6 0 24 -9 40 -20z m165 11 c0 -12 -20 -25 -27
-18 -7 7 6 27 18 27 5 0 9 -4 9 -9z m330 -196 c0 -8 -4 -15 -10 -15 -5 0 -10
7 -10 15 0 8 5 15 10 15 6 0 10 -7 10 -15z m210 -75 c0 -5 -4 -10 -9 -10 -6 0
-13 5 -16 10 -3 6 1 10 9 10 9 0 16 -4 16 -10z m-2915 -20 c3 -5 1 -10 -5 -10
-7 0 -10 -6 -7 -13 4 -10 -2 -13 -20 -9 -16 3 -21 7 -13 12 7 4 9 13 6 19 -4
7 1 11 13 11 11 0 23 -4 26 -10z m1240 -50 c3 -5 -1 -10 -10 -10 -9 0 -13 5
-10 10 3 6 8 10 10 10 2 0 7 -4 10 -10z m-30 -80 c3 -6 -1 -7 -9 -4 -18 7 -21
14 -7 14 6 0 13 -4 16 -10z m1585 -160 c0 -5 -4 -10 -10 -10 -5 0 -10 5 -10
10 0 6 5 10 10 10 6 0 10 -4 10 -10z m3330 -50 c0 -5 -5 -10 -11 -10 -5 0 -7
5 -4 10 3 6 8 10 11 10 2 0 4 -4 4 -10z m-3044 -67 c-7 -7 -26 7 -26 19 0 6 6
6 15 -2 9 -7 13 -15 11 -17z m2919 7 c3 -5 1 -10 -4 -10 -6 0 -11 5 -11 10 0
6 2 10 4 10 3 0 8 -4 11 -10z m-2895 -130 c0 -5 -5 -10 -11 -10 -5 0 -7 5 -4
10 3 6 8 10 11 10 2 0 4 -4 4 -10z m2552 -532 c-15 -15 -24 -6 -16 16 5 12 10
14 17 7 8 -8 8 -14 -1 -23z m-1000 -133 c0 -5 -5 -11 -11 -13 -6 -2 -11 4 -11
13 0 9 5 15 11 13 6 -2 11 -8 11 -13z m-2252 -72 c0 -7 -5 -13 -11 -13 -6 0
-9 -7 -6 -15 4 -8 2 -17 -3 -20 -6 -4 -10 7 -10 23 0 18 -6 32 -16 36 -8 3
-13 10 -10 15 8 12 56 -11 56 -26z m1280 17 c0 -5 -2 -10 -4 -10 -3 0 -8 5
-11 10 -3 6 -1 10 4 10 6 0 11 -4 11 -10z m-1195 -21 c10 -15 -1 -23 -20 -15
-9 3 -13 10 -10 16 8 13 22 13 30 -1z m38 -73 c4 -10 1 -13 -9 -9 -7 3 -14 9
-14 14 0 14 17 10 23 -5z m3017 -86 c-19 -13 -30 -13 -30 0 0 6 10 10 23 10
18 0 19 -2 7 -10z m5 -42 c-4 -13 -17 -31 -29 -40 -20 -17 -20 -18 -1 -18 13
-1 6 -8 -23 -22 -23 -11 -45 -18 -48 -15 -9 8 28 56 49 62 9 4 17 12 17 19 0
14 20 36 33 36 4 0 5 -10 2 -22z m-1193 -34 c8 -7 -30 -84 -42 -84 -15 0 -21
18 -8 23 10 4 11 7 1 18 -7 7 -13 20 -13 28 0 11 3 11 13 -4 13 -17 14 -17 20
4 5 20 18 27 29 15z m998 -18 c0 -2 -11 -11 -25 -20 -14 -9 -25 -12 -25 -6 0
6 10 15 23 20 27 11 27 11 27 6z m74 -17 c-7 -11 -34 -12 -34 -1 0 14 11 21
26 15 8 -3 11 -9 8 -14z m-54 -24 c0 -8 -7 -15 -15 -15 -8 0 -15 7 -15 15 0 8
7 15 15 15 8 0 15 -7 15 -15z m215 5 c-3 -5 -10 -10 -16 -10 -5 0 -9 5 -9 10
0 6 7 10 16 10 8 0 12 -4 9 -10z m-75 -27 c11 -9 -28 -23 -67 -23 -54 0 -62
-15 -21 -37 32 -17 32 -18 9 -21 -14 -2 -42 2 -63 9 l-38 12 27 17 c16 10 36
26 46 38 15 16 26 19 60 15 23 -3 44 -8 47 -10z m-1222 -20 c6 -19 -25 -16
-32 3 -4 11 -1 14 11 12 9 -2 18 -9 21 -15z m967 -33 c3 -5 1 -10 -4 -10 -6 0
-11 5 -11 10 0 6 2 10 4 10 3 0 8 -4 11 -10z m-165 -30 c0 -5 -4 -10 -10 -10
-5 0 -10 5 -10 10 0 6 5 10 10 10 6 0 10 -4 10 -10z m174 -25 c-11 -8 -27 -15
-36 -15 -9 0 -26 -12 -37 -26 -16 -21 -19 -30 -10 -41 9 -11 8 -12 -5 -7 -9 3
-16 10 -16 15 0 4 -7 6 -15 3 -25 -10 -17 19 16 59 31 38 56 50 45 21 -5 -13
-1 -15 21 -9 16 3 32 14 37 23 7 12 11 13 14 4 2 -7 -4 -20 -14 -27z m565 -69
c7 -5 17 -4 22 1 11 11 89 -6 89 -19 0 -5 13 1 28 12 22 17 36 20 69 14 30 -4
40 -10 36 -20 -3 -9 2 -14 13 -15 14 0 15 -2 4 -6 -22 -9 -50 -46 -45 -60 2
-7 -2 -13 -9 -13 -8 0 -17 -7 -20 -16 -3 -8 -11 -12 -17 -8 -12 7 -119 -15
-119 -25 0 -3 -34 -7 -75 -9 -51 -1 -75 1 -75 9 0 7 -11 0 -25 -15 -18 -19
-25 -22 -25 -12 0 20 -16 21 -24 1 -3 -8 -10 -15 -17 -15 -6 0 -9 7 -5 15 4
10 -1 15 -14 15 -11 0 -20 5 -20 10 0 6 5 10 11 10 5 0 7 5 4 10 -4 6 -10 8
-15 5 -4 -3 -14 3 -21 12 -12 14 -11 15 10 8 19 -6 23 -4 18 7 -8 21 2 30 60
58 29 14 52 31 53 39 0 8 7 11 19 8 10 -2 24 -1 30 3 15 8 42 7 60 -4z m311
-46 c8 -5 11 -12 7 -16 -4 -4 -2 -13 4 -21 15 -18 4 -17 -26 3 -14 9 -21 22
-18 30 6 16 12 17 33 4z m-1030 -14 c0 -3 -4 -8 -10 -11 -5 -3 -10 -1 -10 4 0
6 5 11 10 11 6 0 10 -2 10 -4z m-468 -40 c3 -14 2 -30 -2 -36 -4 -7 -9 3 -12
24 -4 40 7 50 14 12z m265 -32 c-3 -3 -12 -4 -19 -1 -8 3 -5 6 6 6 11 1 17 -2
13 -5z m-4690 -55 c27 -6 63 -18 81 -25 18 -8 49 -14 70 -14 20 -1 55 -7 77
-15 22 -8 64 -15 94 -15 43 0 68 -8 125 -38 39 -22 83 -42 98 -45 14 -4 48
-23 74 -43 26 -20 60 -44 77 -54 42 -26 169 -193 154 -202 -9 -6 -9 -8 -1 -8
7 0 15 -11 18 -25 4 -14 12 -25 19 -25 8 0 7 -3 -2 -9 -12 -7 -12 -13 -3 -24
7 -7 9 -17 5 -20 -3 -4 -1 -7 5 -7 7 0 12 -4 12 -10 0 -5 -7 -7 -15 -4 -8 4
-15 14 -15 23 0 14 -2 14 -10 1 -6 -10 -10 -11 -10 -2 0 6 -4 12 -9 12 -4 0
-14 -30 -20 -67 -21 -117 -23 -143 -13 -143 6 0 10 12 9 26 -1 15 5 31 15 37
28 19 49 -12 58 -86 4 -36 10 -70 14 -75 3 -5 -1 -18 -9 -28 -12 -16 -11 -21
2 -36 9 -10 13 -18 9 -18 -8 0 9 -22 37 -48 9 -9 17 -21 17 -27 0 -17 61 -86
70 -80 5 3 18 -14 29 -37 22 -50 64 -98 84 -98 8 0 22 -9 31 -19 15 -16 22
-17 47 -8 16 6 29 15 29 19 0 4 5 8 11 8 5 0 8 -3 6 -7 -3 -5 14 -7 38 -7 39
2 44 0 48 -24 7 -34 1 -42 -27 -42 -12 0 -27 -5 -33 -11 -6 -6 -35 -11 -64
-12 -48 -2 -54 -5 -57 -24 -5 -31 -42 -30 -66 2 -10 13 -23 22 -28 19 -14 -9
-88 17 -88 31 0 6 -11 22 -25 35 -14 13 -25 20 -25 15 0 -4 -9 4 -21 18 -11
16 -21 43 -22 67 -1 23 -6 40 -13 40 -13 0 -16 50 -3 66 5 6 -6 53 -26 114
-20 57 -38 121 -42 142 -7 45 -16 42 -20 -8 -3 -44 -31 -92 -57 -100 -15 -5
-29 4 -55 34 -60 66 -171 223 -171 239 0 8 -42 43 -51 43 -4 0 -10 9 -14 19
-3 11 -23 37 -44 58 -24 24 -44 56 -51 81 -11 43 -22 56 -185 222 -77 78 -138
114 -167 97 -15 -10 -16 -13 -3 -15 8 -2 15 -10 15 -18 0 -17 16 -19 23 -1 3
7 6 5 6 -6 1 -9 15 -36 31 -59 17 -22 30 -47 30 -55 0 -7 3 -13 8 -13 4 0 20
-21 37 -48 16 -26 37 -54 46 -63 11 -9 14 -20 10 -28 -8 -13 -75 48 -193 174
-26 28 -68 68 -94 89 -90 76 -98 116 -31 156 37 23 50 24 114 9z m5363 -7 c0
-5 -7 -9 -15 -9 -8 0 -12 4 -9 9 3 4 9 8 15 8 5 0 9 -4 9 -8z m-70 -16 c0 -3
-4 -8 -10 -11 -5 -3 -10 -1 -10 4 0 6 5 11 10 11 6 0 10 -2 10 -4z m-4399
-293 c-10 -17 -10 -16 -11 3 0 23 13 41 18 25 2 -6 -1 -18 -7 -28z m4827 -148
c-2 -13 -12 -21 -30 -23 -16 -2 -28 0 -29 5 0 4 -2 16 -4 25 -2 10 4 22 13 27
22 12 53 -9 50 -34z m-4600 -56 c-3 -8 -7 -3 -11 10 -4 17 -3 21 5 13 5 -5 8
-16 6 -23z m3018 -486 c-10 -10 -19 5 -10 18 6 11 8 11 12 0 2 -7 1 -15 -2
-18z m-3446 -8 c0 -12 -19 -12 -23 0 -4 9 -1 12 9 8 7 -3 14 -7 14 -8z m95
-115 c-3 -5 -11 -10 -16 -10 -6 0 -7 5 -4 10 3 6 11 10 16 10 6 0 7 -4 4 -10z
m635 -140 c-6 -11 -18 -20 -28 -20 -13 0 -12 4 8 20 31 25 33 25 20 0z m-994
-354 c7 -1 19 -8 28 -15 9 -7 16 -11 16 -7 0 3 24 -7 53 -23 28 -15 63 -32 77
-36 14 -4 37 -16 52 -26 14 -11 40 -22 57 -25 17 -4 31 -10 31 -14 0 -5 14
-11 30 -15 17 -4 30 -11 30 -16 0 -5 3 -8 8 -7 6 1 27 -6 72 -26 8 -3 2 -4
-13 -1 -26 5 -28 4 -22 -16 4 -13 3 -19 -2 -16 -6 4 -20 -4 -32 -17 -17 -18
-19 -25 -9 -28 7 -3 -20 -15 -59 -28 -40 -12 -73 -26 -73 -29 0 -3 -14 -7 -32
-7 -19 -1 -38 -10 -49 -23 -9 -11 -22 -21 -28 -21 -6 0 -11 -4 -11 -10 0 -5
-7 -10 -15 -10 -9 0 -18 -7 -21 -15 -3 -8 -14 -17 -25 -20 -23 -7 -68 -81 -89
-144 -13 -41 -18 -46 -45 -46 -35 -1 -77 37 -149 132 -26 34 -54 67 -64 72 -9
6 -14 11 -9 11 9 0 -170 177 -191 189 -12 7 -11 10 2 24 18 17 22 32 6 22 -12
-7 -13 5 -2 22 7 11 40 17 146 28 67 7 100 16 108 29 4 6 11 11 15 11 7 0 46
31 79 63 7 6 16 12 21 12 4 0 19 9 32 19 14 11 34 17 45 14 12 -2 26 -5 32 -7z
m1341 -72 c-3 -3 -12 -4 -19 -1 -8 3 -5 6 6 6 11 1 17 -2 13 -5z m34 -27 c-10
-9 -11 -8 -5 6 3 10 9 15 12 12 3 -3 0 -11 -7 -18z m-1955 -32 c-18 -18 -21
-30 -6 -20 6 4 10 -8 10 -28 0 -25 -4 -34 -17 -34 -10 0 -21 5 -25 10 -4 7
-12 6 -22 -2 -9 -8 -16 -9 -16 -3 0 5 -12 13 -27 18 -22 6 -24 8 -10 11 11 3
16 11 13 19 -8 20 27 40 75 42 38 3 40 2 25 -13z m1136 -92 c8 -10 16 -35 16
-56 1 -21 4 -42 7 -47 4 -6 2 -10 -4 -10 -5 0 -15 16 -21 36 -7 19 -18 38 -25
41 -8 2 -11 11 -8 20 3 8 0 19 -8 24 -11 7 -9 9 7 9 11 0 28 -8 36 -17z m-49
-206 c15 0 27 -3 27 -8 0 -4 20 -11 44 -14 66 -10 98 -56 87 -125 l-6 -34 -55
1 c-30 0 -60 -3 -66 -8 -6 -5 -51 -29 -101 -53 -88 -43 -105 -59 -107 -101 -1
-11 -7 -19 -15 -17 -8 2 -11 -3 -8 -12 4 -9 2 -18 -3 -21 -6 -4 -10 -15 -10
-26 0 -10 -7 -19 -15 -19 -9 0 -18 -6 -21 -14 -3 -9 -12 -12 -21 -9 -11 4 -14
2 -9 -5 4 -7 2 -12 -4 -12 -6 0 -13 7 -16 15 -4 8 -14 15 -23 15 -14 1 -14 2
1 14 16 12 16 14 0 30 -14 14 -15 18 -3 25 8 5 11 16 7 29 -4 11 -2 23 4 27 8
5 8 10 0 20 -11 13 -24 82 -14 72 3 -3 15 3 26 12 69 60 86 74 117 94 20 13
38 34 42 51 9 33 37 66 56 66 7 0 13 5 13 11 0 7 8 9 23 4 12 -4 34 -8 50 -8z
m736 -97 c6 0 11 -8 10 -17 0 -11 -3 -13 -6 -5 -2 6 -9 9 -15 6 -12 -7 -28 14
-28 36 1 12 3 12 14 -2 7 -10 18 -18 25 -18z m721 -10 c0 -5 -4 -10 -10 -10
-5 0 -10 5 -10 10 0 6 5 10 10 10 6 0 10 -4 10 -10z m1210 0 c0 -5 -4 -10 -10
-10 -5 0 -10 5 -10 10 0 6 5 10 10 10 6 0 10 -4 10 -10z m-1344 -16 c-4 -12
-2 -15 9 -10 8 3 15 3 15 0 0 -8 -44 -22 -53 -17 -5 3 -1 14 9 24 21 23 28 24
20 3z m-504 -119 c36 -5 53 -13 72 -36 22 -25 24 -33 14 -54 -6 -14 -18 -27
-27 -29 -86 -25 -99 -26 -137 -10 -26 11 -39 13 -42 5 -7 -21 -18 -11 -20 21
-1 17 7 51 18 74 17 38 23 43 47 39 16 -2 49 -7 75 -10z m-334 -282 c37 -59
65 -140 58 -168 -6 -25 -120 -140 -157 -159 -54 -28 -57 -27 -81 22 -12 26
-24 70 -25 97 -1 28 -5 59 -7 69 -3 11 0 29 7 40 6 12 12 23 13 26 7 28 38 80
61 102 54 50 85 43 131 -29z m-268 37 c24 0 48 -224 26 -237 -6 -4 -23 -6 -38
-4 -15 1 -40 -6 -55 -16 -29 -20 -70 -23 -82 -6 -3 5 -21 18 -38 28 -34 20
-42 38 -22 51 8 5 8 8 0 14 -8 4 3 17 28 34 21 15 46 42 55 59 17 36 84 89
104 82 8 -3 18 -5 22 -5z"/>
<path d="M920 3773 c1 -5 8 -19 16 -33 10 -17 13 -18 8 -5 -3 11 -7 26 -7 33
0 6 -4 12 -9 12 -4 0 -8 -3 -8 -7z"/>
<path d="M4220 6382 c0 -21 25 -31 44 -16 16 11 17 14 4 14 -9 0 -23 3 -32 6
-9 3 -16 2 -16 -4z"/>
<path d="M4460 6360 c0 -5 5 -10 11 -10 5 0 7 5 4 10 -3 6 -8 10 -11 10 -2 0
-4 -4 -4 -10z"/>
<path d="M3725 6101 c-3 -5 -1 -12 5 -16 5 -3 10 1 10 9 0 18 -6 21 -15 7z"/>
<path d="M2160 6068 c0 -4 9 -8 20 -8 11 0 20 4 20 8 0 4 -9 8 -20 8 -11 0
-20 -4 -20 -8z"/>
<path d="M2231 6044 c0 -11 3 -14 6 -6 3 7 2 16 -1 19 -3 4 -6 -2 -5 -13z"/>
<path d="M2105 5919 c-4 -6 -5 -12 -2 -15 2 -3 7 2 10 11 7 17 1 20 -8 4z"/>
<path d="M2160 5580 c0 -5 5 -10 11 -10 5 0 7 5 4 10 -3 6 -8 10 -11 10 -2 0
-4 -4 -4 -10z"/>
<path d="M2296 5523 c4 -16 8 -38 8 -50 1 -13 4 -23 9 -23 4 0 7 -3 6 -7 -3
-18 14 -52 28 -57 8 -3 11 -1 8 4 -13 21 15 9 33 -15 12 -15 23 -21 27 -15 3
5 1 10 -4 10 -6 0 -11 9 -11 21 0 11 -4 17 -10 14 -14 -8 -13 8 1 22 8 8 8 19
1 40 -6 15 -11 23 -11 16 -1 -7 -7 -10 -15 -7 -8 3 -13 16 -11 30 2 19 -4 28
-22 35 -39 15 -46 12 -37 -18z"/>
<path d="M2700 5500 c0 -5 6 -10 14 -10 8 0 18 5 21 10 3 6 -3 10 -14 10 -12
0 -21 -4 -21 -10z"/>
<path d="M6970 5500 c0 -5 5 -10 10 -10 6 0 10 5 10 10 0 6 -4 10 -10 10 -5 0
-10 -4 -10 -10z"/>
<path d="M6062 5373 c-19 -8 -4 -22 18 -16 11 3 17 9 14 14 -6 10 -12 10 -32
2z"/>
<path d="M5580 5258 c-30 -33 -83 -81 -117 -105 -35 -25 -63 -46 -63 -48 0 -2
8 -1 18 2 11 2 42 0 70 -5 48 -9 51 -8 64 17 40 79 52 94 58 77 5 -15 8 -14
18 9 11 23 10 27 -2 22 -25 -10 -26 5 -4 44 12 21 20 41 17 43 -2 2 -29 -23
-59 -56z"/>
<path d="M4710 5216 c0 -22 17 -28 24 -10 9 22 8 24 -9 24 -8 0 -15 -6 -15
-14z"/>
<path d="M6017 5223 c-4 -3 -7 -11 -7 -17 0 -6 5 -5 12 2 6 6 9 14 7 17 -3 3
-9 2 -12 -2z"/>
<path d="M5785 5195 c-8 -14 -22 -36 -30 -50 -8 -13 -15 -31 -15 -38 0 -8 -7
-20 -15 -27 -18 -15 -20 -41 -2 -34 14 5 97 135 97 152 0 23 -20 21 -35 -3z"/>
<path d="M4815 5170 c3 -5 8 -10 11 -10 2 0 4 5 4 10 0 6 -5 10 -11 10 -5 0
-7 -4 -4 -10z"/>
<path d="M5616 5153 c-3 -10 -9 -24 -12 -30 -9 -21 24 -15 35 6 8 14 7 22 -3
30 -10 9 -15 7 -20 -6z"/>
<path d="M5780 5079 c0 -5 5 -7 10 -4 6 3 10 8 10 11 0 2 -4 4 -10 4 -5 0 -10
-5 -10 -11z"/>
<path d="M2410 5019 c0 -5 5 -7 10 -4 6 3 10 8 10 11 0 2 -4 4 -10 4 -5 0 -10
-5 -10 -11z"/>
<path d="M5795 5000 c-3 -5 -2 -10 4 -10 5 0 13 5 16 10 3 6 2 10 -4 10 -5 0
-13 -4 -16 -10z"/>
<path d="M2686 4970 c-14 -5 -16 -9 -7 -14 14 -9 67 2 57 11 -10 10 -29 11
-50 3z"/>
<path d="M3017 4958 c-15 -12 -13 -17 19 -51 29 -31 34 -34 28 -15 -4 12 -8
34 -9 47 -1 29 -15 36 -38 19z"/>
<path d="M912 4907 c-17 -10 -56 -21 -87 -24 -30 -3 -55 -9 -55 -13 0 -5 -20
-8 -45 -8 -24 1 -51 -5 -60 -12 -11 -9 -47 -14 -98 -15 -104 -2 -109 -3 -103
-14 4 -5 2 -11 -3 -13 -5 -1 -10 -34 -12 -73 -4 -98 0 -147 9 -141 5 3 26 1
47 -5 33 -9 101 -15 115 -9 3 1 21 3 40 4 19 1 55 8 80 15 47 14 53 16 137 50
28 11 59 18 68 15 11 -5 18 0 22 15 3 11 12 21 19 21 8 0 14 7 14 15 0 8 6 12
13 9 8 -3 20 2 27 11 7 8 9 15 4 15 -5 0 -3 4 5 9 11 7 10 14 -8 39 -12 17
-21 34 -20 39 6 24 -16 60 -45 73 -29 14 -35 14 -64 -3z"/>
<path d="M5786 4894 c-8 -20 0 -32 14 -18 5 5 5 15 1 22 -6 11 -10 10 -15 -4z"/>
<path d="M5830 4890 c-8 -5 -10 -10 -5 -10 6 0 17 5 25 10 8 5 11 10 5 10 -5
0 -17 -5 -25 -10z"/>
<path d="M5825 4850 c-3 -5 -1 -10 4 -10 6 0 11 5 11 10 0 6 -2 10 -4 10 -3 0
-8 -4 -11 -10z"/>
<path d="M2013 4803 c-7 -2 -13 -13 -13 -24 0 -19 1 -19 31 -3 25 12 29 18 18
25 -15 10 -18 10 -36 2z"/>
<path d="M1630 4780 c0 -19 -3 -25 -18 -36 -10 -7 -11 -13 -4 -17 5 -4 8 -17
4 -29 -5 -21 -6 -21 -13 -2 -6 16 -8 15 -8 -8 -1 -15 4 -30 9 -33 6 -3 10 -13
10 -21 0 -8 10 -26 23 -39 46 -48 58 -68 44 -77 -6 -4 -7 -8 -1 -8 16 0 62 39
161 138 63 63 101 94 122 98 17 4 31 11 31 16 0 5 -4 7 -8 4 -19 -12 -248 -8
-277 4 -42 18 -75 23 -75 10z"/>
<path d="M6020 4780 c0 -5 9 -10 19 -10 11 0 23 5 26 10 4 6 -5 10 -19 10 -14
0 -26 -4 -26 -10z"/>
<path d="M3100 4770 c0 -5 5 -10 11 -10 5 0 7 5 4 10 -3 6 -8 10 -11 10 -2 0
-4 -4 -4 -10z"/>
<path d="M5900 4765 c-25 -14 -25 -14 13 -15 21 0 36 4 32 9 -3 5 5 12 17 14
18 3 16 4 -7 5 -16 1 -41 -5 -55 -13z"/>
<path d="M5813 4733 c-3 -7 -11 -13 -18 -13 -8 0 -17 -5 -21 -11 -11 -18 45
-2 74 22 l25 19 -28 -2 c-15 -2 -30 -8 -32 -15z"/>
<path d="M4340 4673 c0 -10 4 -14 8 -8 4 6 11 13 16 18 5 4 2 7 -7 7 -10 0
-17 -8 -17 -17z"/>
<path d="M5640 4680 c0 -5 5 -10 10 -10 6 0 10 5 10 10 0 6 -4 10 -10 10 -5 0
-10 -4 -10 -10z"/>
<path d="M5760 4669 c0 -5 5 -7 10 -4 6 3 10 8 10 11 0 2 -4 4 -10 4 -5 0 -10
-5 -10 -11z"/>
<path d="M5590 4659 c0 -5 5 -7 10 -4 6 3 10 8 10 11 0 2 -4 4 -10 4 -5 0 -10
-5 -10 -11z"/>
<path d="M5674 4654 c-18 -14 -18 -15 4 -4 12 6 22 13 22 15 0 8 -5 6 -26 -11z"/>
<path d="M4337 4643 c-6 -9 -10 -50 -8 -73 1 -9 10 -16 21 -16 15 0 20 7 20
26 0 52 -19 86 -33 63z"/>
<path d="M5803 4621 c-10 -10 -25 -20 -33 -23 -10 -3 -5 -10 18 -22 19 -10 36
-15 38 -13 3 2 8 21 11 41 6 41 -6 47 -34 17z"/>
<path d="M6109 4625 c-1 -3 -2 -10 -3 -16 0 -7 -10 -15 -20 -19 -14 -5 -16 -9
-7 -14 6 -4 17 -4 24 1 7 5 28 9 47 7 l35 -2 -32 10 c-36 12 -42 24 -15 31 13
4 11 5 -5 6 -13 0 -24 -1 -24 -4z"/>
<path d="M6190 4605 c0 -8 5 -15 10 -15 6 0 10 7 10 15 0 8 -4 15 -10 15 -5 0
-10 -7 -10 -15z"/>
<path d="M5910 4575 c0 -9 5 -15 11 -13 6 2 11 8 11 13 0 5 -5 11 -11 13 -6 2
-11 -4 -11 -13z"/>
<path d="M6005 4570 c-3 -5 -2 -10 4 -10 5 0 13 5 16 10 3 6 2 10 -4 10 -5 0
-13 -4 -16 -10z"/>
<path d="M6015 4552 c-16 -8 -31 -19 -33 -24 -2 -4 -11 -8 -19 -8 -13 0 -13 3
-3 15 10 13 9 15 -8 15 -14 0 -20 -5 -16 -14 3 -7 -2 -16 -12 -20 -12 -4 -15
-2 -10 9 3 8 1 15 -5 15 -17 0 -22 -31 -8 -46 18 -17 94 -20 132 -5 21 8 28
17 26 34 -2 12 0 28 4 35 11 16 -10 14 -48 -6z m30 -33 c0 -8 -12 -15 -27 -17
-31 -4 -37 12 -10 27 21 13 37 9 37 -10z"/>
<path d="M6015 4520 c-3 -6 1 -7 9 -4 18 7 21 14 7 14 -6 0 -13 -4 -16 -10z"/>
<path d="M5845 4550 c-4 -6 5 -10 19 -10 14 0 26 5 26 10 0 6 -9 10 -19 10
-11 0 -23 -4 -26 -10z"/>
<path d="M6081 4551 c-8 -6 -9 -11 -3 -15 6 -3 14 -1 17 5 9 14 2 20 -14 10z"/>
<path d="M4395 4520 c-3 -5 1 -10 9 -10 9 0 16 5 16 10 0 6 -4 10 -9 10 -6 0
-13 -4 -16 -10z"/>
<path d="M6095 4510 c-3 -5 1 -10 10 -10 9 0 13 5 10 10 -3 6 -8 10 -10 10 -2
0 -7 -4 -10 -10z"/>
<path d="M6000 4446 c0 -2 7 -6 15 -10 8 -3 15 -1 15 4 0 6 -7 10 -15 10 -8 0
-15 -2 -15 -4z"/>
<path d="M6115 4400 c-3 -6 1 -7 9 -4 18 7 21 14 7 14 -6 0 -13 -4 -16 -10z"/>
<path d="M6020 4371 c0 -6 5 -13 10 -16 6 -3 10 1 10 9 0 9 -4 16 -10 16 -5 0
-10 -4 -10 -9z"/>
<path d="M5590 4150 c0 -5 5 -10 11 -10 5 0 7 5 4 10 -3 6 -8 10 -11 10 -2 0
-4 -4 -4 -10z"/>
<path d="M5786 4152 c-3 -6 -1 -14 5 -17 15 -10 25 3 12 16 -7 7 -13 7 -17 1z"/>
<path d="M5658 4033 c7 -3 16 -2 19 1 4 3 -2 6 -13 5 -11 0 -14 -3 -6 -6z"/>
<path d="M2898 3428 c-10 -12 -18 -28 -18 -34 0 -18 -14 -25 -68 -31 -57 -6
-59 -8 -38 -28 18 -18 75 -17 111 2 11 6 46 14 78 17 31 4 57 11 57 15 0 9
-86 81 -97 81 -4 0 -16 -10 -25 -22z"/>
<path d="M4596 3396 c-3 -13 -9 -32 -12 -43 -6 -16 -5 -15 8 2 18 24 29 65 18
65 -4 0 -11 -11 -14 -24z"/>
<path d="M3795 3324 c-14 -15 -25 -31 -26 -35 -6 -59 11 -110 47 -140 13 -11
18 -11 21 -2 3 9 10 9 28 -3 32 -21 111 -26 126 -8 9 11 9 14 0 14 -7 0 -9 5
-6 10 4 6 -31 49 -77 95 -47 47 -82 88 -79 90 2 3 1 5 -3 5 -4 0 -18 -12 -31
-26z"/>
<path d="M4266 3055 c-3 -9 -19 -18 -36 -22 -17 -3 -28 -8 -25 -11 3 -3 -2
-13 -10 -22 -18 -20 -10 -100 10 -100 6 0 20 -9 30 -20 10 -11 28 -20 39 -20
12 0 28 -5 36 -10 10 -6 22 -3 39 13 16 15 25 18 28 10 6 -16 23 -17 23 -1 0
6 7 19 16 29 12 14 13 22 4 39 -6 11 -9 29 -5 39 4 12 -2 21 -20 29 -14 6 -25
16 -25 22 0 5 -12 10 -28 10 -15 0 -37 7 -49 15 -19 13 -22 13 -27 0z"/>
<path d="M3970 2954 c0 -16 23 -44 35 -44 18 0 18 5 5 31 -10 17 -40 27 -40
13z"/>
<path d="M2708 2893 c7 -3 16 -2 19 1 4 3 -2 6 -13 5 -11 0 -14 -3 -6 -6z"/>
<path d="M2740 2869 c0 -5 5 -7 10 -4 6 3 10 8 10 11 0 2 -4 4 -10 4 -5 0 -10
-5 -10 -11z"/>
<path d="M2670 2840 c0 -13 11 -13 30 0 12 8 11 10 -7 10 -13 0 -23 -4 -23
-10z"/>
<path d="M3785 2840 c-4 -6 -2 -10 4 -10 6 0 7 -8 4 -17 -6 -16 -5 -16 10 -4
9 7 17 17 17 21 0 12 -29 20 -35 10z"/>
<path d="M4047 2843 c-4 -3 -7 -14 -7 -24 0 -24 -40 -47 -133 -75 -85 -25
-171 -32 -183 -13 -10 16 -47 -52 -46 -85 1 -50 37 -56 113 -17 24 13 55 33
69 45 14 12 40 29 58 39 29 16 33 17 38 3 4 -10 18 -16 35 -16 26 0 32 -6 49
-44 19 -45 35 -62 44 -48 7 12 64 14 71 2 17 -27 125 7 125 40 0 10 10 25 23
33 22 16 22 16 -9 11 -81 -15 -207 58 -221 127 -5 29 -13 35 -26 22z"/>
<path d="M4607 2824 c-3 -4 -2 -15 4 -25 6 -13 6 -19 0 -19 -7 0 -7 -8 -2 -22
5 -13 15 -44 22 -69 7 -25 17 -46 23 -47 80 -14 98 -13 141 8 25 12 53 34 63
49 17 28 48 61 53 58 2 -1 -2 5 -10 13 -10 10 -36 15 -85 16 -45 0 -94 8 -133
22 -70 25 -67 24 -76 16z"/>
<path d="M2933 2771 c15 -35 17 -37 25 -24 5 7 33 0 87 -22 44 -17 94 -34 110
-37 66 -12 165 -41 165 -49 0 -5 14 -24 30 -42 17 -19 30 -42 30 -51 0 -9 4
-16 9 -16 13 0 101 108 101 124 0 6 -17 20 -37 31 -21 11 -41 23 -44 28 -9 12
-41 -4 -35 -18 8 -21 -3 -23 -47 -10 -28 8 -42 18 -41 28 1 9 -1 16 -5 15 -20
-2 -23 4 -7 15 16 12 16 13 -3 14 -12 1 -26 -7 -31 -17 -6 -11 -20 -25 -31
-31 -18 -9 -20 -8 -15 9 11 32 -17 44 -105 45 -48 0 -86 5 -93 12 -6 7 -26 14
-43 17 -30 4 -30 3 -20 -21z"/>
<path d="M4442 2708 c6 -18 28 -21 28 -4 0 9 -7 16 -16 16 -9 0 -14 -5 -12
-12z"/>
<path d="M4690 2581 c0 -5 5 -13 10 -16 6 -3 10 -2 10 4 0 5 -4 13 -10 16 -5
3 -10 2 -10 -4z"/>
<path d="M4762 2511 c-10 -6 -7 -14 15 -30 15 -13 33 -32 40 -44 l12 -22 -2
23 c-1 12 -4 22 -8 22 -4 0 -6 7 -5 16 1 21 -35 46 -52 35z"/>
<path d="M3067 2134 c-3 -3 -11 -6 -19 -7 -33 -5 -23 -46 16 -62 36 -15 53
-42 36 -59 -10 -10 24 -56 43 -56 5 0 38 -27 74 -60 35 -33 69 -60 76 -60 15
0 42 59 38 84 -1 11 -12 31 -23 46 -11 15 -28 58 -38 96 -10 38 -19 64 -19 57
-1 -6 -10 -15 -22 -18 -12 -4 -18 -12 -15 -21 7 -17 -23 -32 -33 -17 -3 6 -16
14 -29 17 -18 6 -21 11 -12 21 16 19 2 38 -23 31 -12 -3 -26 -1 -32 4 -7 6
-14 7 -18 4z"/>
<path d="M7145 2014 c-14 -15 -25 -23 -25 -19 0 4 -8 -2 -19 -13 -10 -12 -20
-20 -22 -17 -3 2 -13 -9 -24 -26 -11 -16 -28 -32 -37 -35 -10 -3 -18 -12 -18
-20 0 -8 -4 -14 -8 -14 -9 0 -32 -59 -32 -83 0 -9 -4 -17 -10 -17 -5 0 -10
-10 -10 -22 0 -13 -7 -35 -14 -50 -9 -16 -10 -28 -5 -28 6 0 7 -4 4 -10 -3 -5
-7 -43 -9 -83 -1 -40 -7 -80 -12 -88 -4 -8 -10 -23 -11 -34 -3 -17 -1 -18 8
-5 9 12 10 11 4 -5 -8 -23 -8 -24 -2 -82 2 -23 2 -45 -1 -48 -12 -11 -9 -121
4 -155 7 -19 12 -42 13 -50 0 -8 3 -44 7 -80 3 -36 6 -75 6 -87 0 -14 4 -20
11 -16 6 4 8 0 4 -9 -3 -9 -3 -19 1 -23 4 -4 7 -10 7 -13 1 -13 17 -57 31 -90
9 -18 14 -40 13 -50 -3 -32 1 -53 9 -48 4 3 7 -9 6 -26 -4 -57 11 -68 98 -68
l78 0 0 720 c0 495 -3 720 -10 720 -6 0 -22 -12 -35 -26z"/>
<path d="M3401 1764 c0 -11 3 -14 6 -6 3 7 2 16 -1 19 -3 4 -6 -2 -5 -13z"/>
<path d="M4574 884 c3 -9 6 -20 6 -25 0 -5 4 -9 9 -9 5 0 8 8 6 18 -2 9 -4 20
-4 25 -1 4 -6 7 -12 7 -6 0 -8 -7 -5 -16z"/>
<path d="M4476 792 c-3 -5 -17 -7 -30 -5 -21 4 -25 1 -28 -23 -2 -21 -8 -29
-21 -27 -12 0 -16 -4 -13 -13 3 -8 1 -14 -4 -14 -6 0 -6 -10 1 -26 12 -33 2
-46 -16 -21 -15 21 -26 9 -20 -22 3 -18 1 -20 -16 -10 -17 8 -23 7 -34 -8 -13
-17 -8 -18 86 -21 94 -3 101 -1 119 20 10 13 24 40 30 62 10 34 9 41 -9 60
-12 12 -21 27 -21 34 0 15 -17 25 -24 14z m-41 -92 c3 -5 -1 -10 -9 -10 -9 0
-16 5 -16 10 0 6 4 10 9 10 6 0 13 -4 16 -10z"/>
</g>
</svg>
